<svg width="24" height="24" viewBox="0 0 24 24" fill="none" xmlns="http://www.w3.org/2000/svg">
<path d="M24 3.58696H6.3L5.79348 0.640762H1.3087C0.584783 0.640762 0 1.22663 0 1.95V3.2587H3.58804L5.89674 16.6875C5.94783 16.9832 6.23207 17.2228 6.53261 17.2228H22.0364C22.7603 17.2228 23.3462 16.6375 23.3462 15.9125V14.6049H8.19456L7.87554 12.7495H19.8549C21.3005 12.7495 22.6658 11.5929 22.9043 10.1679L24 3.58696Z" fill="#FF4F00"/>
<path d="M10.5839 23.3598C11.834 23.3598 12.8475 22.3463 12.8475 21.0962C12.8475 19.8461 11.834 18.8326 10.5839 18.8326C9.33375 18.8326 8.32031 19.8461 8.32031 21.0962C8.32031 22.3463 9.33375 23.3598 10.5839 23.3598Z" fill="#FF4F00"/>
<path d="M16.1758 21.0957C16.1758 22.3451 17.1883 23.3587 18.4377 23.3587C19.6883 23.3587 20.703 22.3451 20.703 21.0957C20.703 19.8462 19.6883 18.8316 18.4377 18.8316C17.1883 18.8316 16.1758 19.8468 16.1758 21.0957Z" fill="#FF4F00"/>
</svg>
