<svg width="365" height="38" viewBox="0 0 365 38" fill="none" xmlns="http://www.w3.org/2000/svg">
<path d="M56.2206 0L43.1159 38H31.1359L35.3044 25.903H16.1486L11.98 38H0L13.1047 0H25.0847L18.9602 17.7488H38.1161L44.2406 0H56.2206Z" fill="#FF4F00"/>
<path d="M62.1979 0L49.1055 38H61.1222L65.2908 25.903H92.5515C93.6839 25.9019 94.788 25.5487 95.7102 24.8925C96.6325 24.2362 97.3273 23.3095 97.698 22.2409L99.2383 17.761L102.551 8.1664L105.314 0H62.1979ZM87.8695 15.8689C87.6842 16.4055 87.3364 16.8712 86.8742 17.2015C86.4121 17.5317 85.8584 17.7102 85.2901 17.7122H68.0535L71.3663 8.11757H90.5222L87.8695 15.8689Z" fill="#FF4F00"/>
<path d="M233.709 14.868L236.019 8.15419H219.088L211.607 29.8458H240.518L237.706 38H196.827L209.92 0H250.811L245.689 14.868H233.709Z" fill="white"/>
<path d="M255.676 38H243.696L256.801 0H268.781L255.676 38Z" fill="white"/>
<path d="M333.277 8.15419L325.796 29.8458H340.783C341.35 29.8465 341.904 29.6705 342.366 29.3423C342.828 29.0141 343.177 28.55 343.362 28.0148L346.907 17.7488H358.875L354.707 29.8458L353.154 34.3379C352.783 35.4065 352.089 36.3332 351.166 36.9895C350.244 37.6457 349.14 37.9989 348.008 38H311.004L324.109 0H365L362.188 8.15419H333.277Z" fill="white"/>
<path d="M154.408 0L151.584 8.15419L146.694 22.2287C146.323 23.2973 145.628 24.224 144.706 24.8803C143.784 25.5365 142.68 25.8897 141.547 25.8908H133.455L141.254 37.9878H128.137L120.338 25.8908L123.149 17.7366H134.372C134.937 17.7253 135.484 17.5398 135.94 17.2054C136.395 16.871 136.735 16.4042 136.914 15.8689L139.591 8.11757H120.46L110.179 38H98.1992L111.304 0H154.408Z" fill="white"/>
<path d="M172.476 0L143.761 38H157.391H175.63L174.909 29.8458H163.552L179.591 8.64247L182.109 38H193.026L189.774 0H172.476Z" fill="white"/>
<path d="M306.029 0L298.449 21.9724L285.504 0H274.893L261.788 38H273.756L281.384 15.8934L294.281 38H304.892L317.996 0H306.029Z" fill="white"/>
</svg>
