<svg width="17" height="17" viewBox="0 0 17 17" fill="none" xmlns="http://www.w3.org/2000/svg">
<path d="M6.29889 8.40531C5.76137 7.62736 5.44161 6.68871 5.37563 6.60897C6.16289 6.06012 7.70261 5.3704 7.78882 4.38076C7.89851 3.10212 5.73223 0.429071 5.31694 0.404785C4.18037 0.416928 2.1003 2.34036 1.8538 2.92159C1.39561 4.12333 1.62268 5.24169 2.41034 6.86074C3.41334 9.26907 7.13877 13.8376 9.26985 15.2717C10.68 16.354 11.7102 16.779 12.9402 16.5224C13.5122 16.4139 15.5777 14.7192 15.7845 13.5733C15.8351 13.1483 13.434 10.3308 12.1922 10.219C11.2281 10.13 10.3036 11.5734 9.64101 12.2789C9.57504 12.1947 9.00999 11.7539 8.40365 11.0561C7.61437 10.2267 6.88094 9.25248 6.29889 8.40531Z" fill="#E9540D"/>
</svg>
