<svg width="40" height="40" viewBox="0 0 40 40" fill="none" xmlns="http://www.w3.org/2000/svg">
<path d="M18.1175 1.87265C14.5261 1.91717 10.1788 2.12194 7.71987 2.35935C6.40199 2.48993 5.59471 2.80154 4.99853 3.41289C4.43942 3.98862 4.14561 4.77506 4.08571 5.8553C4.0743 6.07788 4.0743 7.35399 4.08571 8.68946C4.15132 15.5923 4.43087 22.1569 4.75606 24.5103C4.92436 25.7359 5.15827 26.5966 5.56333 27.4661C5.94843 28.2971 6.38202 28.9232 7.06378 29.6355C7.84824 30.4546 8.44157 30.9235 9.71667 31.7247C12.1927 33.2798 14.5318 34.6093 19.6094 37.3456L20.003 37.5563L20.4223 37.3307C24.7582 34.9892 26.4527 34.0425 28.5807 32.7723C31.0396 31.3033 31.9239 30.6742 32.8196 29.769C34.3001 28.2644 34.9818 26.7301 35.2871 24.2313C35.4896 22.5842 35.6836 19.023 35.8034 14.883C35.8176 14.3281 35.8376 13.6544 35.8462 13.3844C35.8832 12.1261 35.9203 9.53228 35.926 7.70121C35.9317 5.90279 35.926 5.64757 35.8804 5.35376C35.6065 3.54347 34.5825 2.62645 32.58 2.392C30.7201 2.17239 25.7053 1.9231 22.4248 1.88452C21.6946 1.87562 20.8046 1.86375 20.4423 1.86078C20.0829 1.85484 19.036 1.86078 18.1175 1.87265ZM24.4644 3.35057C28.1927 3.48708 31.1366 3.65921 32.4602 3.81649C33.6754 3.95894 34.2487 4.36849 34.4627 5.24396C34.5682 5.66834 34.5796 6.09272 34.5482 8.73991C34.4798 14.8534 34.2915 19.94 34.0177 23.1333C33.8379 25.2641 33.5013 26.4779 32.7939 27.5848C32.115 28.6443 31.1765 29.499 29.5848 30.4991C27.3312 31.9147 24.4758 33.5439 20.6505 35.5946L20.003 35.9418L19.1102 35.4611C14.8171 33.1463 11.3968 31.1728 9.75946 30.0688C8.63555 29.312 7.79974 28.4959 7.23494 27.6145C6.4733 26.4274 6.16237 25.2581 5.96555 22.8721C5.67458 19.296 5.42071 11.3337 5.45779 6.92961C5.4692 5.61195 5.4749 5.51995 5.53196 5.28551C5.6318 4.89377 5.7459 4.67416 5.97696 4.43674C6.28789 4.11623 6.68154 3.94114 7.32337 3.8432C8.45298 3.67108 12.8488 3.42476 16.5486 3.32386C17.7381 3.29121 23.3804 3.31199 24.4644 3.35057Z" fill="#E11418"/>
<path d="M13.1312 7.65665C11.3684 7.84955 9.87361 8.83482 9.00072 10.3751C8.85239 10.6392 8.7012 10.9656 8.7554 10.9063C8.77252 10.8885 8.86095 10.7757 8.95223 10.654C9.74809 9.60643 10.8292 8.90902 12.0273 8.66566C13.6475 8.34219 15.0539 8.72205 16.4003 9.84978C16.7454 10.1406 17.3388 10.7727 17.6697 11.203C18.1603 11.8381 18.7536 12.8145 19.2043 13.7256C19.3698 14.058 19.4325 14.1559 19.4468 14.1144C19.4582 14.0847 19.5666 13.7137 19.6893 13.2864L19.9089 12.5088L19.7235 12.1379C18.9334 10.5739 18.0006 9.41946 16.908 8.65973C16.1778 8.15225 15.4104 7.83768 14.5575 7.70116C14.2009 7.64478 13.4564 7.62103 13.1312 7.65665Z" fill="#E11418"/>
<path d="M26.1763 7.6478C24.7215 7.76948 23.5092 8.34818 22.4024 9.45216C21.7092 10.1407 20.9847 11.1942 20.4712 12.2566L20.3457 12.5178L20.5796 13.3369C20.708 13.788 20.8192 14.156 20.8278 14.153C20.8363 14.153 20.9077 14.0195 20.9847 13.8533C21.5038 12.77 22.2341 11.6067 22.8702 10.847C24.2423 9.20881 25.8426 8.42831 27.5313 8.57075C28.6524 8.66572 29.5395 9.01888 30.3839 9.69848C30.692 9.94777 31.1255 10.4048 31.3509 10.7134C31.4479 10.847 31.5249 10.9479 31.5249 10.936C31.5249 10.9271 31.465 10.7965 31.3937 10.6452C30.8745 9.57384 29.9674 8.66572 28.9005 8.15528C28.0847 7.76354 27.0578 7.57361 26.1763 7.6478Z" fill="#E11418"/>
<path d="M11.0518 11.0428C10.7665 11.0784 10.4242 11.1704 10.1447 11.2862C9.39445 11.5978 8.71839 12.2982 8.31618 13.1647C7.99099 13.874 7.79987 14.8177 7.82554 15.6101L7.8341 15.892L8.15929 15.9069L8.48448 15.9217L8.57576 16.3669C9.08352 18.8034 10.2131 20.9906 11.2486 21.5307C11.5881 21.7058 11.8819 21.6939 12.0587 21.501C12.19 21.3526 12.2242 21.1924 12.2042 20.7502C12.1928 20.4326 12.1728 20.302 12.073 19.9133C11.6537 18.287 11.5824 17.916 11.5253 17.1503C11.4426 15.9751 11.628 15.3222 12.1215 15.073C12.3155 14.975 12.6606 14.975 12.8375 15.073C13.0942 15.2124 13.408 15.5982 13.5649 15.9573C13.6162 16.079 13.6162 16.082 13.5449 16.4025C13.4223 16.9456 13.3966 17.1503 13.3966 17.6281C13.3966 18.0199 13.408 18.1238 13.4622 18.3256C13.5592 18.6668 13.6819 18.8894 13.9101 19.1268C14.1411 19.3702 14.2666 19.4414 15.1652 19.8539C15.4961 20.0053 15.7671 20.1329 15.7728 20.1359C15.7785 20.1388 15.9725 20.9846 16.2064 22.0085C16.4374 23.0353 16.6571 23.9464 16.6885 24.0324C16.7826 24.2817 16.8682 24.442 17.4615 25.5074L18.0263 26.5164L18.2545 27.6916C18.4998 28.9766 18.554 29.1517 18.7623 29.3624C18.999 29.6028 19.2415 29.674 19.9004 29.6978C20.4624 29.7156 20.9217 29.677 21.1527 29.588C21.3724 29.5019 21.5977 29.2823 21.6947 29.0568C21.7489 28.9321 21.8402 28.5226 21.9971 27.7065C22.1197 27.0625 22.2424 26.4956 22.2652 26.4511C22.288 26.4066 22.5619 25.911 22.8757 25.3501C23.1923 24.7892 23.4861 24.2372 23.5318 24.1185C23.5803 23.9998 23.72 23.4508 23.8484 22.8958C23.9739 22.3409 24.165 21.4951 24.2763 21.0173C24.3847 20.5395 24.4788 20.1418 24.4845 20.1359C24.4874 20.1299 24.7897 19.9904 25.1492 19.8242C26.0278 19.4206 26.1133 19.3702 26.3501 19.1239C26.8892 18.5689 27.0062 17.7112 26.7152 16.4292L26.6354 16.079L26.758 15.8297C26.9035 15.5329 27.1773 15.2124 27.3913 15.0908C27.5254 15.0136 27.5738 15.0017 27.7593 15.0017C28.2471 15.0047 28.558 15.3193 28.6921 15.9425C28.7263 16.0998 28.7377 16.3046 28.7348 16.6785C28.732 17.5451 28.6379 18.1623 28.3155 19.3939C28.0502 20.4089 27.9875 20.8036 28.0445 21.133C28.1187 21.5752 28.3868 21.7414 28.809 21.6078C29.8245 21.2873 31.0055 19.2248 31.5931 16.7378C31.6644 16.4351 31.7329 16.1265 31.7414 16.0493L31.7614 15.9098L32.0923 15.9009L32.4232 15.892L32.4204 15.4172C32.4061 13.779 31.7329 12.316 30.6518 11.5829C29.7504 10.9746 28.5409 10.8499 27.4112 11.2476C27.0632 11.3722 26.5555 11.6453 26.2189 11.8945C25.8566 12.1616 25.1834 12.862 24.8696 13.2983C24.2392 14.1797 23.7001 15.2807 23.2636 16.5805L23.1124 17.0346L23.5118 17.3195C23.7314 17.4768 23.9197 17.6222 23.9283 17.646C23.9482 17.6994 23.566 19.6551 23.5261 19.6937C23.5089 19.7115 23.1609 19.8688 22.753 20.0468C22.3451 20.2219 22.0085 20.3673 22.0056 20.3703C21.9971 20.3792 21.7175 22.3587 21.7232 22.3676C21.7261 22.3705 21.8915 22.1598 22.0941 21.9016L22.462 21.4298L22.8414 21.2665C23.1952 21.1122 23.2807 21.0826 23.2807 21.1122C23.2807 21.133 23.0497 22.3023 23.0354 22.3498C23.0269 22.3824 22.7758 22.5041 22.3451 22.691C21.9743 22.8513 21.6605 22.9878 21.6491 22.9967C21.6377 23.0056 21.5207 23.801 21.3866 24.7655L21.1413 26.5164L21.3096 27.0654C21.4037 27.3681 21.4722 27.6234 21.4608 27.6352C21.4494 27.6441 21.1442 27.7747 20.7819 27.9231L20.1258 28.1902L19.4697 27.9231C19.1103 27.7747 18.8079 27.6441 18.7965 27.6352C18.7851 27.6234 18.8507 27.3652 18.9448 27.0654L19.1131 26.5164L18.8678 24.7655C18.7337 23.801 18.6196 23.0116 18.6168 23.0056C18.6111 22.9997 18.303 22.8632 17.9293 22.7029C17.5585 22.5427 17.2447 22.4002 17.2333 22.3854C17.2076 22.3527 16.9737 21.1241 16.9908 21.1063C16.9965 21.0974 17.182 21.1686 17.3959 21.2606L17.7895 21.4298L18.1176 21.8452C18.2973 22.0738 18.4656 22.2904 18.4913 22.323C18.5284 22.3735 18.5112 22.1954 18.4 21.3942C18.323 20.8481 18.2602 20.394 18.2602 20.3851C18.2602 20.3762 17.9094 20.2189 17.4815 20.035L16.7027 19.7026L16.5087 18.6817C16.4003 18.1208 16.3233 17.6489 16.3319 17.6341C16.3433 17.6163 16.523 17.4768 16.737 17.3254L17.122 17.0494L17.1049 16.9456C17.0793 16.8061 16.7541 15.9069 16.5744 15.4677C15.5845 13.1024 14.1725 11.5918 12.538 11.1586C12.0245 11.022 11.5396 10.9835 11.0518 11.0428ZM14.7088 16.7972C14.9256 17.1474 15.1281 17.4887 15.1652 17.554C15.2279 17.6667 15.5731 19.1565 15.5446 19.1862C15.5161 19.2159 14.7858 18.8627 14.6489 18.7559C14.2752 18.4621 14.0955 17.9041 14.1354 17.1533C14.1611 16.6666 14.2524 16.0879 14.2952 16.1324C14.3094 16.1473 14.4948 16.447 14.7088 16.7972ZM26.0648 16.5598C26.1333 17.0079 26.1333 17.6816 26.0677 17.9635C25.9821 18.3196 25.811 18.6075 25.5771 18.7826C25.4316 18.8924 24.7241 19.207 24.7127 19.1684C24.707 19.1535 24.7755 18.8063 24.8668 18.3938L25.0294 17.643L25.3717 17.0791C26.0106 16.0345 25.9679 16.0938 25.9907 16.1591C26.0021 16.1918 26.0335 16.3728 26.0648 16.5598Z" fill="#E11418"/>
<path d="M7.34614 16.996C7.44883 20.5988 8.13345 23.0857 9.38572 24.3975C9.85069 24.8842 10.2928 25.1572 10.889 25.3175C11.2285 25.4094 11.9759 25.4184 12.2697 25.3353C12.6861 25.2136 13.0598 24.9613 13.2852 24.6527C13.4535 24.4212 13.5391 24.2313 13.6132 23.9167C13.6674 23.7001 13.6731 23.614 13.6589 23.2074C13.6446 22.7415 13.6018 22.5011 13.4649 22.05C13.4078 21.872 13.0969 21.1508 13.0798 21.1656C13.0769 21.1716 13.0912 21.2754 13.114 21.3971C13.134 21.5188 13.1597 21.8126 13.1711 22.05C13.1882 22.4002 13.1825 22.5248 13.1426 22.7029C13.0256 23.2608 12.6804 23.5873 12.1128 23.6822C11.257 23.8277 10.2643 22.9611 9.4656 21.3674C8.84944 20.1418 8.31601 18.3582 8.09066 16.7823C8.06499 16.6013 8.03931 16.4262 8.03076 16.3876C8.01934 16.3253 8.00793 16.3224 7.67133 16.3224H7.32617L7.34614 16.996Z" fill="#E11418"/>
<path d="M32.2289 16.3431C32.2203 16.358 32.206 16.447 32.1946 16.5449C32.1205 17.2186 31.8267 18.563 31.5813 19.3642C31.3046 20.2605 30.8568 21.3111 30.4802 21.9313C30.2178 22.3705 30.0096 22.6465 29.7129 22.9581C29.1766 23.522 28.6517 23.7594 28.1155 23.6793C27.5963 23.6051 27.2084 23.2223 27.1 22.6762C27.06 22.4714 27.0828 21.7176 27.1399 21.3971C27.1627 21.2754 27.177 21.1686 27.1713 21.1627C27.1484 21.136 26.8917 21.7503 26.789 22.0797C26.6321 22.5694 26.5808 22.9374 26.5951 23.4389C26.6065 23.7772 26.6236 23.887 26.6863 24.0918C26.8775 24.6972 27.3481 25.1513 27.9728 25.3293C28.2067 25.3976 28.7801 25.4213 29.0739 25.3738C30.0438 25.2284 30.8768 24.6082 31.4929 23.5695C32.3544 22.1272 32.8165 19.9667 32.9106 16.9515L32.9306 16.3224H32.5854C32.3943 16.3224 32.2346 16.3313 32.2289 16.3431Z" fill="#E11418"/>
</svg>
