<svg width="42" height="28" viewBox="0 0 42 28" fill="none" xmlns="http://www.w3.org/2000/svg">
<g clip-path="url(#clip0_31_304)">
<path d="M0.90918 4.14786C0.90918 2.33411 2.40835 0.86377 4.25766 0.86377H37.7425C39.5918 0.86377 41.091 2.33411 41.091 4.14786V23.8524C41.091 25.6662 39.5918 27.1365 37.7425 27.1365H4.25766C2.40835 27.1365 0.90918 25.6662 0.90918 23.8524V4.14786Z" fill="#FDEACE"/>
<path d="M25.1841 6.2229L16.5459 6.25072L16.8164 21.7775L25.4545 21.7497L25.1841 6.2229Z" fill="#FF5F00"/>
<path d="M17.1117 14.0468C17.0565 10.8887 18.4962 8.08282 20.7527 6.26298C19.0479 4.9502 16.9112 4.16059 14.5954 4.16802C9.10905 4.18561 4.74774 8.6212 4.84334 14.0862C4.93893 19.5511 9.45492 23.9583 14.9413 23.9408C17.2571 23.9333 19.366 23.1301 21.0247 21.8066C18.7052 20.0288 17.167 17.205 17.1117 14.0468Z" fill="#EB001B"/>
<path d="M37.1569 13.9144C37.2525 19.3793 32.8912 23.815 27.4048 23.8325C25.089 23.84 22.9522 23.0504 21.2474 21.7376C23.5316 19.9177 24.9438 17.1119 24.8885 13.9538C24.8333 10.7956 23.2955 7.99923 20.9756 6.19407C22.6342 4.8705 24.7432 4.06729 27.059 4.05987C32.5453 4.04228 37.0618 8.47691 37.1569 13.9144Z" fill="#F79E1B"/>
</g>
<defs>
<clipPath id="clip0_31_304">
<rect width="40.1818" height="26.2727" fill="white" transform="translate(0.90918 0.86377)"/>
</clipPath>
</defs>
</svg>
