<svg width="41" height="28" viewBox="0 0 41 28" fill="none" xmlns="http://www.w3.org/2000/svg">
<g clip-path="url(#clip0_31_309)">
<path d="M0.818359 4.14786C0.818359 2.33411 2.31753 0.86377 4.16684 0.86377H37.6517C39.501 0.86377 41.0002 2.33411 41.0002 4.14786V23.8524C41.0002 25.6662 39.501 27.1365 37.6517 27.1365H4.16684C2.31753 27.1365 0.818359 25.6662 0.818359 23.8524V4.14786Z" fill="#DCEFDC"/>
<path d="M34.2093 9.24292H27.7627C28.1382 11.33 30.2037 13.2943 32.4569 13.2943H37.5892C37.6518 13.1102 37.6517 12.8033 37.6517 12.6191C37.6517 10.7776 36.087 9.24292 34.2093 9.24292Z" fill="url(#paint0_linear_31_309)"/>
<path d="M28.3252 13.6626V18.7576H31.4546V16.0567H34.2085C35.7106 16.0567 37.025 15.0131 37.4631 13.6626H28.3252Z" fill="#4FAD50"/>
<path d="M17.3105 9.24292V18.6962H20.0644C20.0644 18.6962 20.7529 18.6962 21.1284 18.0209C23.0061 14.3993 23.5693 13.2943 23.5693 13.2943H23.9449V18.6962H27.0743V9.24292H24.3204C24.3204 9.24292 23.6319 9.30427 23.2565 9.91813C21.6917 13.0488 20.8155 14.6448 20.8155 14.6448H20.4399V9.24292H17.3105Z" fill="#4FAD50"/>
<path d="M4.16699 18.7574V9.3042H7.29642C7.29642 9.3042 8.17266 9.30412 8.67338 10.6546C9.92512 14.215 10.0503 14.706 10.0503 14.706C10.0503 14.706 10.3007 13.8467 11.4273 10.6546C11.9279 9.30412 12.8042 9.3042 12.8042 9.3042H15.9336V18.7574H12.8042V13.6625H12.4287L10.6762 18.7574H9.29928L7.54679 13.6625H7.17126V18.7574H4.16699Z" fill="#4FAD50"/>
</g>
<defs>
<linearGradient id="paint0_linear_31_309" x1="27.7516" y1="11.2977" x2="37.6296" y2="11.2977" gradientUnits="userSpaceOnUse">
<stop stop-color="#27B1E6"/>
<stop offset="1" stop-color="#148ACA"/>
</linearGradient>
<clipPath id="clip0_31_309">
<rect width="40.1818" height="26.2727" fill="white" transform="translate(0.818359 0.86377)"/>
</clipPath>
</defs>
</svg>
