<svg width="41" height="28" viewBox="0 0 41 28" fill="none" xmlns="http://www.w3.org/2000/svg">
<g clip-path="url(#clip0_31_297)">
<path d="M0 4.14786C0 2.33411 1.49917 0.86377 3.34848 0.86377H36.8334C38.6827 0.86377 40.1818 2.33411 40.1818 4.14786V23.8524C40.1818 25.6662 38.6827 27.1365 36.8334 27.1365H3.34848C1.49917 27.1365 0 25.6662 0 23.8524V4.14786Z" fill="#D8E3F3"/>
<path d="M34.581 9.10254H32.476C31.8395 9.10254 31.3499 9.29456 31.0562 9.91877L27.042 18.8972H29.8814C29.8814 18.8972 30.3709 17.6968 30.4688 17.4087C30.7625 17.4087 33.5529 17.4087 33.9445 17.4087C34.0424 17.7449 34.2872 18.8492 34.2872 18.8492H36.8329L34.581 9.10254ZM31.252 15.3922C31.4968 14.8161 32.3291 12.6555 32.3291 12.6555C32.3291 12.7035 32.5739 12.0793 32.6718 11.7433L32.8676 12.6075C32.8676 12.6075 33.4061 14.9601 33.504 15.4402H31.252V15.3922Z" fill="#3362AB"/>
<path d="M27.2388 15.6803C27.2388 17.6969 25.3786 19.0412 22.4903 19.0412C21.2664 19.0412 20.0915 18.8012 19.4551 18.5131L19.8467 16.3045L20.1894 16.4485C21.0706 16.8326 21.658 16.9766 22.7351 16.9766C23.5183 16.9766 24.3505 16.6885 24.3505 16.0164C24.3505 15.5842 24.0078 15.2962 22.9309 14.8161C21.9028 14.3359 20.5321 13.5677 20.5321 12.1754C20.5321 10.2548 22.4413 8.9585 25.1339 8.9585C26.1619 8.9585 27.043 9.15052 27.5815 9.3906L27.1899 11.5032L26.9941 11.3111C26.5045 11.119 25.8681 10.927 24.938 10.927C23.9099 10.975 23.4204 11.4071 23.4204 11.7912C23.4204 12.2233 24.0078 12.5595 24.938 12.9916C26.5045 13.7118 27.2388 14.528 27.2388 15.6803Z" fill="#3362AB"/>
<path d="M3.34863 9.19869L3.39759 9.00659H7.60767C8.19515 9.00659 8.63568 9.19869 8.78258 9.82282L9.71271 14.144C8.78257 11.8394 6.62858 9.96686 3.34863 9.19869Z" fill="#F9B50B"/>
<path d="M15.6361 9.10267L11.377 18.8493H8.48875L6.04102 10.6872C7.80341 11.7915 9.27198 13.5199 9.8105 14.7202L10.1042 15.7285L12.7478 9.05469H15.6361V9.10267Z" fill="#3362AB"/>
<path d="M16.7622 9.05469H19.4547L17.7413 18.8493H15.0488L16.7622 9.05469Z" fill="#3362AB"/>
</g>
<defs>
<clipPath id="clip0_31_297">
<rect width="40.1818" height="26.2727" fill="white" transform="translate(0 0.86377)"/>
</clipPath>
</defs>
</svg>
